<?xml version="1.0" standalone="no"?><!DOCTYPE svg PUBLIC "-//W3C//DTD SVG 1.1//EN" "http://www.w3.org/Graphics/SVG/1.1/DTD/svg11.dtd"><svg t="1596613551298" class="icon" viewBox="0 0 1024 1024" version="1.1" xmlns="http://www.w3.org/2000/svg" p-id="19162" xmlns:xlink="http://www.w3.org/1999/xlink" width="64" height="64"><defs><style type="text/css"></style></defs><path d="M656.03 390.27h287.95c8.85 0 16.02-7.31 16.02-16.33V80.33c0-9.02-7.17-16.33-16.02-16.33H656.03c-8.85 0-16.02 7.31-16.02 16.33v106.06H488.03c-4.37 0-7.95 3.65-7.95 8.11v252.87H384.1V337.19c0-9.02-7.17-16.33-16.02-16.33H80.02c-8.85 0-16.02 7.31-16.02 16.33v293.62c0 9.02 7.17 16.33 16.02 16.33h287.95c8.85 0 16.02-7.31 16.02-16.33V520.65h95.98v308.87c0 4.45 3.58 8.11 7.95 8.11H639.9v106.06c0 9.02 7.17 16.33 16.02 16.33h287.95c8.85 0 16.02-7.31 16.02-16.33V650.28c0-9.02-7.17-16.33-16.02-16.33H656.03c-8.85 0-16.02 7.31-16.02 16.33v114.16h-88.03V259.79h88.03v114.16c0.01 9.02 7.17 16.32 16.02 16.32z m59.92-248.75h168v171.36h-168V141.52z m-407.9 428.22h-168V398.49h168v171.25z m407.9 141.73h168v171.36h-168V711.47z" p-id="19163" fill="#ffffff"></path></svg>