<?xml version="1.0" encoding="UTF-8"?>
<svg width="32px" height="32px" viewBox="0 0 32 32" version="1.1" xmlns="http://www.w3.org/2000/svg" xmlns:xlink="http://www.w3.org/1999/xlink">
    <!-- Generator: Sketch 62 (91390) - https://sketch.com -->
    <title>logo_Csharp</title>
    <desc>Created with Sketch.</desc>
    <g id="Page-1" stroke="none" stroke-width="1" fill="none" fill-rule="evenodd">
        <g id="logo_Csharp" fill-rule="nonzero">
            <circle id="Oval" fill="#05930C" cx="16.2461538" cy="15.7538462" r="15.7538462"></circle>
            <path d="M5.32676923,4.43076923 C0.963214697,8.31917641 -0.88898453,14.3037874 0.515222455,19.9772803 C1.91942944,25.6507731 6.34922688,30.0805706 12.0227197,31.4847775 C17.6962126,32.8889845 23.6808236,31.0367853 27.5692308,26.6732308 L5.32676923,4.43076923 Z" id="Path" fill="#FFFFFF" opacity="0.1"></path>
            <path d="M15.4732308,21.44 C14.4015208,21.9614399 13.2181313,22.2116423 12.0270769,22.1686154 C10.434667,22.2384014 8.88961999,21.6175115 7.78830769,20.4652308 C6.69399949,19.2385499 6.12324187,17.6323002 6.19815385,15.9901538 C6.12112656,14.2106115 6.76752406,12.475638 7.99015385,11.1803077 C9.18532082,9.95755483 10.8401122,9.29456605 12.5489231,9.35384615 C13.5471339,9.3157512 14.5425158,9.48332391 15.4732308,9.84615385 L15.4732308,11.3969231 C14.5705202,10.8951951 13.5520523,10.6388806 12.5193846,10.6535385 C11.2185704,10.6104192 9.96243831,11.1308167 9.07323077,12.0812308 C8.15138084,13.1320866 7.67466314,14.5004429 7.744,15.8966154 C7.67580746,17.2160821 8.12032609,18.5108308 8.98461538,19.5101538 C9.82316741,20.4117432 11.0133716,20.9025676 12.2436923,20.8541538 C13.3781641,20.8823463 14.4980983,20.5942658 15.4781538,20.0221538 L15.4732308,21.44 Z" id="Path" fill="#FFFFFF"></path>
            <path d="M26.4664615,13.0264615 L26.2695385,13.9421538 L24.0049231,13.9421538 L23.4633846,16.5415385 L25.8953846,16.5415385 L25.664,17.4572308 L23.2812308,17.4572308 L22.5181538,20.9033846 L21.4301538,20.9033846 L22.1735385,17.4572308 L20.0073846,17.4572308 L19.2787692,20.9033846 L18.2153846,20.9033846 L18.944,17.4572308 L16.6596923,17.4572308 L16.832,16.5415385 L19.1261538,16.5415385 L19.6529231,13.9470769 L17.2553846,13.9470769 L17.4375385,13.0313846 L19.8350769,13.0313846 L20.5636923,9.55076923 L21.6615385,9.55076923 L20.9329231,13.0313846 L23.1138462,13.0313846 L23.8572308,9.55076923 L24.9206154,9.55076923 L24.192,13.0313846 L26.4664615,13.0264615 Z M22.9366154,13.9421538 L20.7507692,13.9421538 L20.1846154,16.5415385 L22.3803077,16.5415385 L22.9366154,13.9421538 Z" id="Shape" fill="#FFFFFF"></path>
        </g>
    </g>
</svg>