<?xml version="1.0" encoding="UTF-8"?>
<svg width="32px" height="32px" viewBox="0 0 32 32" version="1.1" xmlns="http://www.w3.org/2000/svg" xmlns:xlink="http://www.w3.org/1999/xlink">
    <!-- Generator: Sketch 62 (91390) - https://sketch.com -->
    <title>TypeScript logo</title>
    <desc>Created with Sketch.</desc>
    <g id="Page-1" stroke="none" stroke-width="1" fill="none" fill-rule="evenodd">
        <g id="TypeScript-logo">
            <rect id="Rectangle" fill="#3178C6" fill-rule="nonzero" x="0" y="0" width="32" height="32" rx="4"></rect>
            <path d="M19.8125,25.4375 L19.8125,28.5625 C20.31875,28.825 20.9375,29.01875 21.625,29.15 C22.3125,29.28125 23.0625,29.34375 23.8125,29.34375 C24.5625,29.34375 25.25,29.275 25.9375,29.13125 C26.625,28.9875 27.1875,28.75 27.6875,28.44375 C28.19375,28.1125 28.625,27.69375 28.875,27.13125 C29.125,26.56875 29.31875,25.94375 29.31875,25.13125 C29.31875,24.5625 29.23125,24.06875 29.0625,23.63125 C28.89375,23.19375 28.65,22.81875 28.3125,22.50625 C27.99375,22.175 27.625,21.88125 27.1875,21.63125 C26.75,21.38125 26.25,21.11875 25.6875,20.88125 C25.275,20.7125 24.9375,20.55 24.5625,20.3875 C24.2375,20.225 23.95625,20.0625 23.75,19.9 C23.51875,19.73125 23.34375,19.55625 23.21875,19.375 C23.09375,19.1875 23.03125,18.98125 23.03125,18.75 C23.03125,18.5375 23.086875,18.34375 23.2,18.16875 C23.313125,17.99375 23.46875,17.85 23.66875,17.725 C23.86875,17.6 24.11875,17.50625 24.41875,17.4375 C24.7125,17.36875 25.0375,17.3375 25.41875,17.3375 C25.68125,17.3375 25.95625,17.356875 26.23125,17.39625 C26.51875,17.435625 26.8125,17.49625 27.10625,17.5775 C27.4,17.65875 27.6875,17.75875 27.98125,17.88375 C28.25625,18.00875 28.5125,18.1525 28.73125,18.315 L28.73125,15.3775 C28.25625,15.19625 27.73125,15.05875 27.16875,14.97125 C26.60625,14.88375 25.98125,14.84 25.23125,14.84 C24.48125,14.84 23.79375,14.92125 23.10625,15.0775 C22.41875,15.23375 21.85625,15.48375 21.35625,15.8275 C20.85,16.165 20.48125,16.5775 20.16875,17.14 C19.875,17.665 19.73125,18.265 19.73125,19.015 C19.73125,19.9525 20,20.765 20.54375,21.39 C21.08125,22.0775 21.91875,22.5775 22.98125,23.0775 C23.4125,23.2525 23.79375,23.4275 24.16875,23.59625 C24.54375,23.765 24.85625,23.94 25.10625,24.12125 C25.375,24.3025 25.5875,24.5025 25.73125,24.715 C25.8875,24.9275 25.96875,25.1775 25.96875,25.465 C25.96875,25.665 25.92,25.8525 25.825,26.0275 C25.73,26.2025 25.58125,26.3525 25.38125,26.4775 C25.18125,26.6025 24.9375,26.7025 24.63125,26.7775 C24.3375,26.84625 24.00625,26.88375 23.56875,26.88375 C22.88125,26.88375 22.19375,26.765 21.56875,26.5275 C20.88125,26.29 20.25625,25.93375 19.69375,25.465 L19.8125,25.4375 Z M14.5625,17.75 L18.5625,17.75 L18.5625,15.1875 L7.375,15.1875 L7.375,17.75 L11.375,17.75 L11.375,29.1875 L14.5625,29.1875 L14.5625,17.75 Z" id="Shape" fill="#FFFFFF"></path>
        </g>
    </g>
</svg>