<?xml version="1.0" standalone="no"?><!DOCTYPE svg PUBLIC "-//W3C//DTD SVG 1.1//EN" "http://www.w3.org/Graphics/SVG/1.1/DTD/svg11.dtd"><svg t="1596613407355" class="icon" viewBox="0 0 1024 1024" version="1.1" xmlns="http://www.w3.org/2000/svg" p-id="9533" xmlns:xlink="http://www.w3.org/1999/xlink" width="64" height="64"><defs><style type="text/css"></style></defs><path d="M512 1024a85.333333 85.333333 0 0 1-85.333333-85.333333V512a85.333333 85.333333 0 0 1 85.333333-85.333333h426.666667a85.333333 85.333333 0 0 1 85.333333 85.333333v426.666667a85.333333 85.333333 0 0 1-85.333333 85.333333z m0-469.333333v341.333333a42.666667 42.666667 0 0 0 42.666667 42.666667h341.333333a42.666667 42.666667 0 0 0 42.666667-42.666667v-341.333333a42.666667 42.666667 0 0 0-42.666667-42.666667h-341.333333a42.666667 42.666667 0 0 0-42.666667 42.666667zM85.333333 1024a85.333333 85.333333 0 0 1-85.333333-85.333333V512a85.333333 85.333333 0 0 1 85.333333-85.333333h170.666667a85.333333 85.333333 0 0 1 85.333333 85.333333v426.666667a85.333333 85.333333 0 0 1-85.333333 85.333333z m0-469.333333v341.333333a42.666667 42.666667 0 0 0 42.666667 42.666667h85.333333a42.666667 42.666667 0 0 0 42.666667-42.666667v-341.333333a42.666667 42.666667 0 0 0-42.666667-42.666667h-85.333333a42.666667 42.666667 0 0 0-42.666667 42.666667zM85.333333 341.333333a85.333333 85.333333 0 0 1-85.333333-85.333333V85.333333a85.333333 85.333333 0 0 1 85.333333-85.333333h853.333334a85.333333 85.333333 0 0 1 85.333333 85.333333v170.666667a85.333333 85.333333 0 0 1-85.333333 85.333333z m0-213.333333v85.333333a42.666667 42.666667 0 0 0 42.666667 42.666667h768a42.666667 42.666667 0 0 0 42.666667-42.666667v-85.333333a42.666667 42.666667 0 0 0-42.666667-42.666667h-768a42.666667 42.666667 0 0 0-42.666667 42.666667z" p-id="9534" fill="#ffffff"></path></svg>