<?xml version="1.0" standalone="no"?><!DOCTYPE svg PUBLIC "-//W3C//DTD SVG 1.1//EN" "http://www.w3.org/Graphics/SVG/1.1/DTD/svg11.dtd"><svg t="1596613477675" class="icon" viewBox="0 0 1024 1024" version="1.1" xmlns="http://www.w3.org/2000/svg" p-id="12869" xmlns:xlink="http://www.w3.org/1999/xlink" width="64" height="64"><defs><style type="text/css"></style></defs><path d="M984.662466 238.218132L535.051978 5.620506A50.275853 50.275853 0 0 0 489.121876 5.495628L39.636266 234.49677A49.451659 49.451659 0 0 0 12.487805 278.553703v473.58705c0 18.806616 10.739502 35.964843 27.672948 44.35664l449.560538 222.28271a50.325805 50.325805 0 0 0 44.556444 0l449.560537-222.28271A49.50161 49.50161 0 0 0 1011.51122 752.165729V282.175163c0-18.481933-10.364868-35.390404-26.848754-43.957031zM508.253175 462.124255l-168.760031-82.36948 382.301286-203.051509 164.838864 85.291624-378.380119 200.129365z m3.646435-393.989859l138.389719 71.629979-384.324308 204.125459-150.777609-73.628025 396.712198-202.127413zM79.097691 326.307022l159.444137 77.823924v173.680221c0 18.232177 14.910424 33.017724 33.292456 33.017724s33.292455-14.785547 33.292455-33.017724v-141.137033l173.580318 84.667234v418.216178l-399.609366-197.631807v-415.593741zM545.291968 939.582521V517.37025l399.609366-211.343403v435.898892l-399.609366 197.631807z" p-id="12870" fill="#ffffff"></path></svg>